<svg width="373" height="373" viewBox="0 0 373 373" fill="none" xmlns="http://www.w3.org/2000/svg">
<circle cx="186.5" cy="186.5" r="186.5" fill="#FF724A"/>
<path d="M229.375 233.266C229.375 224.641 226.328 217.375 220.234 211.469C214.234 205.562 204.062 200.219 189.719 195.438C169.75 189.344 155.172 181.422 145.984 171.672C136.891 161.828 132.344 149.359 132.344 134.266C132.344 118.891 136.797 106.281 145.703 96.4375C154.703 86.5938 167.031 80.7344 182.688 78.8594V48.0625H203.641V79C219.391 81.1562 231.625 87.7656 240.344 98.8281C249.156 109.891 253.562 125.031 253.562 144.25H227.688C227.688 131.031 224.547 120.531 218.266 112.75C211.984 104.969 203.5 101.078 192.812 101.078C181.656 101.078 173.125 103.984 167.219 109.797C161.312 115.516 158.359 123.531 158.359 133.844C158.359 143.406 161.453 151.047 167.641 156.766C173.922 162.391 184.188 167.547 198.438 172.234C212.781 176.828 223.938 181.938 231.906 187.562C239.969 193.094 245.875 199.562 249.625 206.969C253.469 214.375 255.391 223.047 255.391 232.984C255.391 248.828 250.609 261.578 241.047 271.234C231.578 280.891 218.266 286.609 201.109 288.391V315.25H180.297V288.391C162.859 286.797 149.172 280.609 139.234 269.828C129.391 258.953 124.469 244.234 124.469 225.672H150.484C150.484 238.703 153.906 248.734 160.75 255.766C167.594 262.797 177.297 266.312 189.859 266.312C202.141 266.312 211.797 263.359 218.828 257.453C225.859 251.547 229.375 243.484 229.375 233.266Z" fill="white"/>
</svg>
