<?xml version="1.0" standalone="no"?>
<!DOCTYPE svg PUBLIC "-//W3C//DTD SVG 20010904//EN"
 "http://www.w3.org/TR/2001/REC-SVG-20010904/DTD/svg10.dtd">
<svg version="1.0" xmlns="http://www.w3.org/2000/svg"
 width="192.000000pt" height="192.000000pt" viewBox="0 0 192.000000 192.000000"
 preserveAspectRatio="xMidYMid meet">
<metadata>
Created by potrace 1.16, written by Peter Selinger 2001-2019
</metadata>
<g transform="translate(0.000000,192.000000) scale(0.100000,-0.100000)"
fill="#000000" stroke="none">
<path d="M887 1606 c-20 -18 -37 -37 -37 -41 0 -3 15 -33 34 -64 19 -32 37
-67 40 -78 3 -11 15 -29 26 -41 12 -12 47 -70 79 -129 32 -60 75 -139 96 -177
20 -38 45 -77 54 -87 9 -10 32 -48 51 -86 19 -37 47 -90 62 -116 15 -26 28
-50 28 -53 0 -2 -97 -4 -217 -3 -216 1 -216 1 -234 -22 -10 -13 -19 -28 -19
-33 0 -6 -18 -40 -40 -77 -22 -37 -40 -72 -40 -78 0 -8 142 -11 471 -11 l471
0 -20 33 c-10 17 -32 57 -48 87 -16 30 -43 75 -60 100 -17 25 -55 90 -84 145
-29 55 -64 117 -77 137 -12 21 -23 42 -23 48 0 5 -4 10 -8 10 -5 0 -46 69 -92
153 -109 199 -109 200 -165 287 -66 105 -97 129 -161 130 -43 0 -55 -5 -87
-34z"/>
</g>
</svg>
